<svg xmlns="http://www.w3.org/2000/svg" xmlns:xlink="http://www.w3.org/1999/xlink" width="8.5in" height="1in" viewBox="0 0 510 60">
    <g transform="matrix(1 0 0 1 -1254.980455 606.67093)" id="440f22a9-fcad-4ff5-ad4a-bfe05a603c7c">

</g>
<g id="a63c05c8-29e4-4702-94af-25f75c74ea4f">
<g style="">
		<g id="d9c34fdc-060f-47d6-b175-ac731fb7bd73">
<path style="stroke: rgb(193,193,193); stroke-width: 0; stroke-dasharray: none; stroke-linecap: butt; stroke-dashoffset: 0; stroke-linejoin: miter; stroke-miterlimit: 4; fill: rgb(0,0,0); fill-rule: nonzero; opacity: 1;" d="M113.03613,14.80694c0.36,-0.36 0.73,-0.64 1.1,-0.84c0.37,-0.21 0.86,-0.29 1.46,-0.24c1.59,0.17 3.14,0.29 4.66,0.35c1.53,0.06 3.06,0.11 4.59,0.16c0.39,0 0.72,-0.1 1.01,-0.29c1.53,-0.72 3.03,-0.78 4.5,-0.18c0.55,0.29 1.02,0.39 1.4,0.32c1.27,-0.12 2.55,-0.21 3.82,-0.28c1.27,-0.07 2.52,-0.19 3.74,-0.36c0.55,-0.07 1.09,-0.22 1.61,-0.44c0.51,-0.21 1.05,-0.43 1.6,-0.64c0.55,-0.22 1,-0.24 1.35,-0.06c0.35,0.18 0.58,0.55 0.7,1.1c0.05,0.39 -0.03,0.74 -0.22,1.06c-0.19,0.33 -0.51,0.59 -0.97,0.78c-0.5,0.14 -1.02,0.27 -1.55,0.39c-0.53,0.12 -1.05,0.19 -1.58,0.22c-1.44,0.12 -2.88,0.21 -4.32,0.27c-1.44,0.06 -2.88,0.11 -4.32,0.16c-0.45,0 -0.82,0.1 -1.1,0.29c-0.27,0.19 -0.49,0.54 -0.66,1.04c-1.08,3.22 -2.15,6.44 -3.21,9.67c-1.05,3.23 -1.89,6.54 -2.52,9.95c-0.12,0.63 -0.2,1.23 -0.25,1.82c-0.05,0.59 -0.12,1.19 -0.22,1.82c-0.02,0.12 -0.05,0.25 -0.09,0.39c-0.03,0.15 -0.09,0.24 -0.16,0.29c-0.19,0.22 -0.45,0.36 -0.77,0.43c-0.33,0.07 -0.67,0.08 -1.03,0.02c-0.36,-0.06 -0.7,-0.17 -1.01,-0.34c-0.31,-0.17 -0.52,-0.38 -0.64,-0.65c-0.31,-0.5 -0.47,-1.05 -0.47,-1.65c-0.03,-0.75 -0.02,-1.49 0.02,-2.22c0.03,-0.73 0.07,-1.45 0.12,-2.14c0.05,-1.05 0.11,-2.07 0.18,-3.06c0.07,-0.99 0.13,-1.98 0.18,-2.99c0.03,-0.77 -0.04,-1.49 -0.2,-2.18c-0.15,-0.68 -0.39,-1.36 -0.7,-2.03c-0.67,-1.65 -1.45,-3.26 -2.34,-4.81c-0.89,-1.55 -1.95,-2.97 -3.2,-4.26c-0.12,-0.07 -0.21,-0.15 -0.27,-0.22c-0.06,-0.07 -0.11,-0.14 -0.16,-0.21c-0.03,-0.05 -0.04,-0.12 -0.04,-0.2c0,-0.09 -0.01,-0.17 -0.04,-0.24zM121.53613,24.09694c0.45,-1.27 0.9,-2.53 1.35,-3.76c0.45,-1.23 0.91,-2.48 1.39,-3.73h-6.45c0.63,1.25 1.24,2.5 1.84,3.73c0.6,1.23 1.22,2.49 1.87,3.76zM135.43613,27.80694c0.41,-0.33 0.81,-0.67 1.2,-1.01c0.4,-0.33 0.8,-0.63 1.21,-0.9c0.65,-0.53 1.36,-0.85 2.14,-0.97c0.78,-0.12 1.58,-0.11 2.39,0.04c1.37,0.19 1.97,0.94 1.8,2.26c-0.05,0.55 -0.13,1.11 -0.25,1.68c-0.12,0.56 -0.25,1.13 -0.39,1.71c-0.34,1.17 -0.5,2.03 -0.47,2.57c0.02,0.54 0.16,0.85 0.41,0.94c0.25,0.08 0.6,-0.01 1.03,-0.27c0.43,-0.27 0.87,-0.61 1.31,-1.03c0.45,-0.42 0.88,-0.86 1.3,-1.33c0.42,-0.47 0.75,-0.88 0.99,-1.24c0.14,-0.27 0.34,-0.42 0.61,-0.45c0.27,-0.04 0.49,0 0.68,0.12c0.19,0.12 0.3,0.3 0.33,0.54c0.02,0.24 -0.14,0.51 -0.47,0.8c-0.43,0.43 -0.82,0.82 -1.15,1.18c-0.34,0.36 -0.68,0.7 -1.03,1.03c-0.35,0.33 -0.71,0.66 -1.08,1.01c-0.37,0.35 -0.79,0.74 -1.24,1.17c-0.41,0.36 -0.85,0.62 -1.33,0.77c-0.48,0.16 -0.97,0.21 -1.46,0.16c-0.49,-0.05 -0.97,-0.18 -1.42,-0.41c-0.46,-0.23 -0.84,-0.54 -1.15,-0.95c-0.36,-0.46 -0.57,-0.97 -0.63,-1.53c-0.06,-0.57 -0.06,-1.14 0.01,-1.73c0.07,-0.59 0.19,-1.17 0.35,-1.75c0.15,-0.57 0.29,-1.09 0.41,-1.55c0.05,-0.26 0.12,-0.52 0.22,-0.77c0.09,-0.25 0.07,-0.57 -0.08,-0.95c-0.21,0.19 -0.4,0.36 -0.57,0.52c-0.17,0.15 -0.34,0.3 -0.51,0.45c-1.03,1.08 -1.96,2.23 -2.79,3.44c-0.83,1.21 -1.59,2.47 -2.28,3.79c-0.17,0.34 -0.4,0.62 -0.69,0.85c-0.29,0.23 -0.61,0.39 -0.97,0.5c-0.36,0.11 -0.73,0.16 -1.11,0.13c-0.39,-0.03 -0.75,-0.13 -1.08,-0.32c-0.27,-0.17 -0.42,-0.37 -0.45,-0.58c-0.04,-0.21 -0.05,-0.45 -0.02,-0.72c0.07,-1.61 0.27,-3.41 0.59,-5.42c0.33,-2 0.77,-4.01 1.32,-6.03c0.55,-2.01 1.21,-3.93 1.98,-5.76c0.77,-1.82 1.63,-3.37 2.59,-4.64c0.41,-0.48 0.89,-0.79 1.46,-0.94c0.56,-0.14 1.14,-0.12 1.74,0.07c0.41,0.12 0.68,0.27 0.83,0.44c0.15,0.17 0.21,0.36 0.18,0.59c-0.03,0.23 -0.1,0.48 -0.23,0.76c-0.13,0.27 -0.27,0.58 -0.42,0.91c-0.48,1.13 -0.91,2.18 -1.28,3.14c-0.37,0.96 -0.7,1.92 -1,2.89c-0.3,0.97 -0.57,2.01 -0.81,3.1c-0.24,1.09 -0.48,2.32 -0.72,3.69zM153.50613,31.26694c-0.31,1.29 -0.4,2.23 -0.25,2.8c0.14,0.58 0.41,0.9 0.82,0.96c0.41,0.06 0.92,-0.08 1.53,-0.42c0.61,-0.33 1.23,-0.74 1.84,-1.22c0.61,-0.48 1.2,-0.98 1.75,-1.49c0.55,-0.52 0.98,-0.94 1.29,-1.25c0.53,-0.53 0.92,-0.75 1.19,-0.68c0.27,0.07 0.42,0.23 0.47,0.47c0.05,0.19 0.01,0.38 -0.11,0.57c-0.12,0.19 -0.23,0.35 -0.32,0.47c-0.65,0.75 -1.28,1.45 -1.88,2.11c-0.6,0.66 -1.22,1.24 -1.87,1.74c-0.65,0.51 -1.34,0.93 -2.07,1.26c-0.73,0.34 -1.53,0.56 -2.39,0.65c-1.37,0.17 -2.48,0.08 -3.35,-0.25c-0.87,-0.33 -1.51,-0.83 -1.94,-1.48c-0.43,-0.65 -0.67,-1.42 -0.72,-2.32c-0.05,-0.9 0.04,-1.82 0.28,-2.77c0.24,-0.95 0.6,-1.89 1.08,-2.83c0.48,-0.93 1.05,-1.76 1.7,-2.48c0.91,-1.01 1.94,-1.77 3.09,-2.29c1.15,-0.51 2.38,-0.67 3.67,-0.48c0.82,0.12 1.45,0.43 1.88,0.93c0.43,0.51 0.64,1.18 0.64,2.02c0,0.67 -0.13,1.29 -0.39,1.85c-0.27,0.57 -0.64,1.1 -1.12,1.61c-0.55,0.62 -1.18,1.12 -1.89,1.49c-0.71,0.37 -1.68,0.72 -2.93,1.03zM154.11613,29.46694c1.03,-0.55 1.9,-1.17 2.59,-1.86c0.7,-0.68 1.07,-1.3 1.12,-1.85c0.05,-0.63 0,-1.02 -0.15,-1.19c-0.14,-0.17 -0.34,-0.21 -0.61,-0.14c-0.38,0.12 -0.73,0.39 -1.06,0.81c-0.33,0.42 -0.61,0.89 -0.86,1.4c-0.25,0.51 -0.47,1.04 -0.65,1.57c-0.18,0.53 -0.31,0.95 -0.38,1.26zM178.12613,32.88694c-0.67,0.02 -1.23,-0.04 -1.67,-0.18c-0.45,-0.15 -0.75,-0.32 -0.9,-0.51c-0.16,-0.19 -0.16,-0.38 0,-0.56c0.15,-0.18 0.49,-0.29 1.02,-0.34c0.58,-0.05 1.14,-0.37 1.68,-0.97c0.54,-0.6 1.04,-1.36 1.49,-2.27c0.46,-0.91 0.88,-1.92 1.26,-3.02c0.39,-1.11 0.72,-2.19 1.01,-3.24c0.29,-1.06 0.52,-2.03 0.7,-2.92c0.18,-0.89 0.29,-1.57 0.34,-2.05c0.05,-0.48 0,-0.82 -0.16,-1.01c-0.15,-0.19 -0.49,-0.11 -1.02,0.25c-0.34,0.19 -0.67,0.4 -0.98,0.62c-0.31,0.21 -0.61,0.45 -0.9,0.72c-0.21,0.12 -0.45,0.12 -0.72,0.01c-0.26,-0.11 -0.46,-0.27 -0.61,-0.5c-0.14,-0.23 -0.21,-0.5 -0.2,-0.81c0.01,-0.31 0.18,-0.63 0.49,-0.94c0.96,-0.96 2.02,-1.58 3.17,-1.87c1.15,-0.29 2.34,-0.37 3.56,-0.25c0.58,0.05 1.06,0.2 1.44,0.45c0.39,0.25 0.69,0.56 0.92,0.92c0.23,0.36 0.39,0.75 0.49,1.17c0.09,0.42 0.14,0.85 0.14,1.28c0,1.08 -0.1,2.13 -0.31,3.16c-0.2,1.03 -0.44,2.05 -0.73,3.06c-0.29,1.01 -0.61,2.01 -0.96,2.99c-0.35,0.99 -0.68,1.96 -0.99,2.92c1.18,-0.12 2.33,-0.25 3.46,-0.4c1.13,-0.14 2.28,-0.27 3.45,-0.39c0.22,-0.7 0.46,-1.41 0.71,-2.13c0.25,-0.72 0.48,-1.43 0.7,-2.12c0.6,-1.83 1.21,-3.62 1.83,-5.37c0.63,-1.75 1.43,-3.44 2.42,-5.07c0.19,-0.27 0.38,-0.53 0.57,-0.79c0.19,-0.27 0.41,-0.51 0.65,-0.72c0.29,-0.24 0.63,-0.4 1.04,-0.47c0.41,-0.07 0.82,-0.07 1.23,0c0.41,0.07 0.79,0.22 1.15,0.43c0.36,0.21 0.64,0.48 0.83,0.79c0.07,0.07 0.1,0.18 0.09,0.31c-0.01,0.13 -0.04,0.26 -0.09,0.38c-0.07,0.26 -0.17,0.51 -0.29,0.75c-0.12,0.24 -0.25,0.49 -0.4,0.76c-0.98,1.85 -1.85,3.73 -2.62,5.65c-0.77,1.92 -1.49,3.9 -2.16,5.94c-0.05,0.19 -0.1,0.39 -0.15,0.58c-0.05,0.19 -0.09,0.38 -0.14,0.57c0.24,0.1 0.48,0.15 0.72,0.15c0.24,0 0.48,0.01 0.72,0.03c0.24,0.03 0.47,0.09 0.68,0.18c0.22,0.1 0.41,0.27 0.58,0.51c-0.22,0.29 -0.47,0.49 -0.74,0.61c-0.27,0.12 -0.56,0.2 -0.86,0.25c-0.3,0.05 -0.6,0.09 -0.9,0.14c-0.3,0.05 -0.58,0.15 -0.85,0.29c-0.33,0.77 -0.66,1.73 -0.97,2.9c-0.31,1.17 -0.59,2.34 -0.83,3.53c-0.24,1.19 -0.43,2.3 -0.56,3.33c-0.13,1.03 -0.17,1.79 -0.12,2.27c-0.36,0.36 -0.76,0.54 -1.19,0.54c-0.43,0 -0.85,-0.06 -1.26,-0.18c-0.41,-0.1 -0.71,-0.29 -0.9,-0.56c-0.19,-0.28 -0.35,-0.61 -0.47,-0.99c-0.17,-0.63 -0.26,-1.27 -0.29,-1.93c-0.02,-0.66 0,-1.31 0.07,-1.96c0.12,-0.89 0.27,-1.78 0.44,-2.68c0.17,-0.9 0.33,-1.81 0.5,-2.72c0.03,-0.12 0.04,-0.25 0.05,-0.38c0.01,-0.13 0.04,-0.32 0.09,-0.56c-0.48,0.05 -0.92,0.1 -1.33,0.15c-0.41,0.05 -0.83,0.09 -1.26,0.14c-0.57,0.1 -1.15,0.19 -1.73,0.27c-0.57,0.09 -1.15,0.15 -1.72,0.2c-0.46,0.05 -0.83,0.17 -1.12,0.38c-0.29,0.2 -0.54,0.49 -0.76,0.88c-0.69,1.37 -1.39,2.72 -2.1,4.05c-0.71,1.33 -1.45,2.67 -2.22,4.01c-0.36,0.63 -0.83,1.03 -1.4,1.21c-0.57,0.18 -1.2,0.15 -1.87,-0.09c-0.41,-0.12 -0.67,-0.27 -0.78,-0.45c-0.11,-0.18 -0.1,-0.5 0.02,-0.95c0.27,-0.77 0.53,-1.55 0.79,-2.34c0.27,-0.79 0.53,-1.57 0.8,-2.34c0.14,-0.46 0.29,-0.91 0.45,-1.35c0.15,-0.45 0.31,-0.9 0.48,-1.35zM207.82613,31.26694c-0.31,1.29 -0.4,2.23 -0.25,2.8c0.15,0.58 0.42,0.9 0.83,0.96c0.41,0.06 0.92,-0.08 1.53,-0.42c0.61,-0.33 1.22,-0.74 1.83,-1.22c0.61,-0.48 1.2,-0.98 1.75,-1.49c0.55,-0.52 0.99,-0.94 1.3,-1.25c0.53,-0.53 0.92,-0.75 1.18,-0.68c0.27,0.07 0.42,0.23 0.47,0.47c0.05,0.19 0.01,0.38 -0.11,0.57c-0.12,0.19 -0.23,0.35 -0.32,0.47c-0.65,0.75 -1.27,1.45 -1.87,2.11c-0.6,0.66 -1.22,1.24 -1.87,1.74c-0.65,0.51 -1.34,0.93 -2.07,1.26c-0.73,0.34 -1.53,0.56 -2.4,0.65c-1.37,0.17 -2.48,0.08 -3.35,-0.25c-0.86,-0.33 -1.51,-0.83 -1.94,-1.48c-0.43,-0.65 -0.67,-1.42 -0.72,-2.32c-0.05,-0.9 0.05,-1.82 0.29,-2.77c0.24,-0.95 0.6,-1.89 1.08,-2.83c0.48,-0.93 1.04,-1.76 1.69,-2.48c0.91,-1.01 1.95,-1.77 3.1,-2.29c1.15,-0.51 2.37,-0.67 3.67,-0.48c0.81,0.12 1.44,0.43 1.87,0.93c0.43,0.51 0.65,1.18 0.65,2.02c0,0.67 -0.13,1.29 -0.4,1.85c-0.26,0.57 -0.63,1.1 -1.11,1.61c-0.55,0.62 -1.18,1.12 -1.89,1.49c-0.71,0.37 -1.69,0.72 -2.94,1.03zM208.43613,29.46694c1.03,-0.55 1.9,-1.17 2.6,-1.86c0.69,-0.68 1.06,-1.3 1.11,-1.85c0.05,-0.63 0,-1.02 -0.14,-1.19c-0.15,-0.17 -0.35,-0.21 -0.61,-0.14c-0.39,0.12 -0.74,0.39 -1.07,0.81c-0.32,0.42 -0.61,0.89 -0.86,1.4c-0.25,0.51 -0.47,1.04 -0.65,1.57c-0.18,0.53 -0.31,0.95 -0.38,1.26zM225.86613,30.64694c0.12,-0.12 0.28,-0.25 0.47,-0.39c0.09,-0.07 0.18,-0.15 0.27,-0.24c0.08,-0.08 0.17,-0.15 0.27,-0.21c0.09,-0.06 0.2,-0.08 0.32,-0.07c0.12,0.01 0.25,0.08 0.4,0.23c0.19,0.19 0.22,0.39 0.09,0.59c-0.13,0.21 -0.26,0.39 -0.38,0.56c-0.58,0.58 -1.16,1.17 -1.73,1.78c-0.57,0.61 -1.16,1.2 -1.76,1.77c-0.6,0.56 -1.23,1.05 -1.89,1.47c-0.66,0.42 -1.36,0.72 -2.11,0.89c-0.51,0.14 -1.01,0.15 -1.51,0.03c-0.51,-0.12 -0.98,-0.34 -1.41,-0.65c-0.43,-0.31 -0.8,-0.7 -1.11,-1.17c-0.31,-0.47 -0.51,-0.98 -0.58,-1.53c-0.21,-1.13 -0.21,-2.25 0,-3.38c0.72,-5.07 2.15,-9.91 4.29,-14.54c0.17,-0.39 0.36,-0.76 0.57,-1.12c0.22,-0.36 0.44,-0.72 0.65,-1.08c0.17,-0.27 0.41,-0.48 0.74,-0.65c0.32,-0.17 0.67,-0.29 1.06,-0.36c0.39,-0.07 0.77,-0.08 1.15,-0.03c0.39,0.05 0.74,0.15 1.05,0.32c0.26,0.17 0.45,0.35 0.57,0.56c0.12,0.2 0.12,0.49 0,0.88c-0.14,0.43 -0.28,0.85 -0.43,1.26c-0.15,0.41 -0.29,0.83 -0.43,1.26c-0.75,2.25 -1.49,4.5 -2.23,6.75c-0.75,2.25 -1.48,4.5 -2.2,6.75c-0.15,0.45 -0.25,0.92 -0.32,1.39c-0.07,0.47 -0.13,0.93 -0.18,1.38c-0.07,0.89 0,1.47 0.21,1.75c0.22,0.27 0.53,0.35 0.92,0.23c0.39,-0.12 0.84,-0.38 1.35,-0.77c0.51,-0.4 1,-0.84 1.49,-1.32c0.49,-0.48 0.96,-0.93 1.39,-1.36c0.43,-0.43 0.77,-0.76 1.01,-0.98zM230.36613,28.56694c0.24,-0.39 0.5,-0.81 0.79,-1.28c0.29,-0.47 0.59,-0.94 0.9,-1.42c0.31,-0.48 0.63,-0.94 0.94,-1.39c0.31,-0.45 0.61,-0.84 0.9,-1.17c0.48,-0.53 1.05,-0.86 1.71,-1.01c0.66,-0.14 1.36,-0.16 2.1,-0.07c1.54,0.21 2.45,1.04 2.74,2.48c0.14,0.65 0.18,1.28 0.12,1.89c-0.06,0.61 -0.17,1.21 -0.34,1.79c-0.17,0.48 -0.34,0.95 -0.52,1.42c-0.18,0.47 -0.39,1.01 -0.63,1.64c0.24,0 0.55,-0.03 0.94,-0.09c0.38,-0.06 0.77,-0.16 1.18,-0.31c0.41,-0.15 0.82,-0.32 1.23,-0.52c0.41,-0.21 0.78,-0.44 1.11,-0.7c0.24,-0.19 0.49,-0.27 0.76,-0.24c0.27,0.04 0.48,0.15 0.63,0.33c0.15,0.18 0.23,0.41 0.22,0.68c-0.01,0.27 -0.19,0.56 -0.53,0.85c-0.45,0.41 -0.97,0.73 -1.56,0.97c-0.59,0.24 -1.19,0.43 -1.8,0.57c-0.61,0.15 -1.21,0.26 -1.8,0.35c-0.59,0.08 -1.11,0.18 -1.57,0.3c-0.19,0.05 -0.38,0.12 -0.57,0.22c-0.19,0.09 -0.39,0.21 -0.58,0.36c-0.96,0.84 -2.09,1.4 -3.38,1.69c-1.3,0.29 -2.79,0.31 -4.47,0.07c-0.05,0.22 -0.1,0.42 -0.16,0.61c-0.06,0.19 -0.13,0.39 -0.2,0.58c-0.33,1.23 -0.64,2.41 -0.93,3.56c-0.29,1.15 -0.61,2.31 -0.94,3.46c-0.15,0.55 -0.34,1.09 -0.58,1.62c-0.24,0.53 -0.49,1.04 -0.75,1.55c-0.48,1.05 -1.37,1.39 -2.67,1.01c-0.33,-0.12 -0.55,-0.25 -0.66,-0.4c-0.11,-0.15 -0.14,-0.39 -0.09,-0.72c0.09,-0.57 0.21,-1.16 0.34,-1.75c0.13,-0.59 0.26,-1.16 0.38,-1.71c0.67,-2.69 1.34,-5.37 2.01,-8.04c0.67,-2.68 1.32,-5.37 1.95,-8.08c0.12,-0.58 0.22,-1.16 0.29,-1.75c0.07,-0.59 0.16,-1.17 0.28,-1.75c0.07,-0.55 0.34,-0.86 0.81,-0.93c0.47,-0.07 1.02,-0.09 1.64,-0.04c0.39,0.05 0.66,0.28 0.83,0.69c0.17,0.41 0.27,0.89 0.31,1.45c0.03,0.57 0.01,1.15 -0.08,1.75c-0.08,0.6 -0.18,1.09 -0.3,1.48zM236.01613,24.81694c-0.17,-0.31 -0.45,-0.26 -0.86,0.16c-0.41,0.42 -0.9,1.09 -1.46,2c-0.57,0.91 -1.17,2 -1.82,3.26c-0.65,1.26 -1.29,2.55 -1.94,3.87c0.67,0.03 1.33,-0.15 1.98,-0.54c0.65,-0.39 1.25,-0.88 1.8,-1.49c0.55,-0.61 1.03,-1.3 1.45,-2.06c0.42,-0.75 0.75,-1.48 0.98,-2.17c0.23,-0.7 0.33,-1.33 0.32,-1.88c-0.01,-0.55 -0.16,-0.93 -0.45,-1.15zM253.36613,29.89694c0.15,0 0.29,0.05 0.42,0.14c0.13,0.1 0.22,0.22 0.28,0.36c0.06,0.15 0.07,0.3 0.04,0.47c-0.03,0.17 -0.12,0.33 -0.27,0.5c-0.48,0.53 -0.92,1.01 -1.33,1.43c-0.41,0.42 -0.81,0.83 -1.21,1.22c-0.39,0.39 -0.79,0.8 -1.2,1.22c-0.41,0.42 -0.86,0.88 -1.34,1.39c-0.53,0.55 -1.1,0.91 -1.72,1.08c-0.63,0.17 -1.32,0.18 -2.09,0.04c-0.58,-0.17 -1.02,-0.43 -1.32,-0.76c-0.3,-0.33 -0.51,-0.78 -0.63,-1.33c-0.19,-0.65 -0.25,-1.3 -0.19,-1.96c0.06,-0.66 0.15,-1.3 0.27,-1.93c0.21,-1.2 0.53,-2.36 0.95,-3.47c0.42,-1.12 0.91,-2.22 1.46,-3.3c0.5,-0.96 1.12,-1.54 1.87,-1.74c0.75,-0.21 1.59,-0.21 2.52,-0.02c0.81,0.19 1.11,0.68 0.9,1.47c-0.05,0.34 -0.12,0.68 -0.22,1.01c-0.09,0.34 -0.2,0.68 -0.32,1.01c-0.33,1.08 -0.67,2.16 -1.01,3.24c-0.33,1.08 -0.69,2.17 -1.08,3.28c-0.07,0.48 0.02,0.7 0.27,0.66c0.25,-0.03 0.58,-0.21 0.97,-0.52c0.4,-0.31 0.83,-0.7 1.3,-1.17c0.47,-0.47 0.89,-0.89 1.28,-1.28c0.26,-0.26 0.49,-0.5 0.68,-0.72c0.19,-0.21 0.43,-0.32 0.72,-0.32zM249.91613,21.18694c-0.6,0 -1,-0.11 -1.19,-0.33c-0.19,-0.21 -0.23,-0.63 -0.11,-1.26c0.29,-1.7 0.92,-3.24 1.91,-4.61c0.36,-0.55 0.85,-0.91 1.47,-1.09c0.63,-0.18 1.22,-0.18 1.77,0.01c0.36,0.15 0.59,0.32 0.68,0.51c0.1,0.19 0.09,0.47 -0.03,0.83c-0.1,0.19 -0.2,0.37 -0.31,0.54c-0.11,0.17 -0.22,0.36 -0.34,0.57c-0.34,0.63 -0.68,1.25 -1.03,1.86c-0.35,0.61 -0.69,1.24 -1.02,1.89c-0.12,0.24 -0.24,0.43 -0.35,0.57c-0.11,0.15 -0.22,0.26 -0.34,0.33c-0.12,0.07 -0.27,0.11 -0.45,0.14c-0.18,0.03 -0.4,0.04 -0.66,0.04zM257.47613,30.54694c0.41,-0.36 0.81,-0.74 1.2,-1.14c0.4,-0.39 0.81,-0.76 1.24,-1.1c0.94,-0.72 1.87,-1.43 2.79,-2.12c0.93,-0.69 1.88,-1.39 2.87,-2.09c0.48,-0.33 0.99,-0.57 1.54,-0.7c0.55,-0.13 1.12,-0.13 1.7,0.02c1.01,0.29 1.59,0.81 1.74,1.56c0.16,0.76 0.01,1.62 -0.45,2.58c-0.86,2.25 -1.41,4.06 -1.64,5.43c-0.23,1.37 -0.17,2.21 0.18,2.52c0.35,0.31 0.99,0.06 1.91,-0.77c0.93,-0.83 2.13,-2.31 3.62,-4.45c0.19,-0.29 0.37,-0.46 0.52,-0.52c0.16,-0.06 0.33,-0.08 0.52,-0.05c0.22,0.02 0.38,0.12 0.49,0.3c0.11,0.18 0.06,0.48 -0.13,0.89c-0.24,0.48 -0.54,1 -0.91,1.56c-0.37,0.57 -0.79,1.11 -1.25,1.64c-0.45,0.53 -0.93,1.02 -1.42,1.48c-0.49,0.45 -0.97,0.82 -1.42,1.11c-0.93,0.58 -1.9,0.87 -2.9,0.87c-0.99,0 -1.84,-0.32 -2.54,-0.96c-0.69,-0.63 -1.15,-1.6 -1.36,-2.9c-0.22,-1.29 -0.02,-2.96 0.61,-5c0.05,-0.19 0.16,-0.47 0.34,-0.83c0.18,-0.36 0.31,-0.68 0.4,-0.97c0.08,-0.29 0.06,-0.47 -0.06,-0.56c-0.12,-0.08 -0.43,0.05 -0.93,0.38c-0.99,0.75 -1.91,1.55 -2.78,2.41c-0.86,0.87 -1.67,1.79 -2.44,2.77c-0.55,0.65 -1.09,1.33 -1.61,2.02c-0.51,0.69 -1.02,1.39 -1.53,2.09c-0.36,0.5 -0.75,0.85 -1.18,1.04c-0.43,0.19 -0.93,0.29 -1.48,0.29c-0.67,-0.03 -1.17,-0.18 -1.48,-0.47c-0.31,-0.29 -0.4,-0.75 -0.28,-1.4c0.12,-0.94 0.26,-1.86 0.43,-2.77c0.17,-0.91 0.38,-1.83 0.65,-2.74c0.41,-1.27 0.88,-2.53 1.42,-3.78c0.54,-1.25 1.19,-2.41 1.96,-3.49c0.65,-0.63 1.43,-0.94 2.34,-0.94c0.89,0.05 1.44,0.23 1.67,0.54c0.23,0.31 0.19,0.9 -0.12,1.77c-0.34,0.81 -0.67,1.63 -0.99,2.46c-0.33,0.83 -0.62,1.67 -0.88,2.54c-0.22,0.41 -0.4,0.86 -0.54,1.37c0.05,0.02 0.08,0.04 0.09,0.05c0.01,0.01 0.04,0.03 0.09,0.06zM281.30613,30.25694c0.41,-0.55 0.87,-0.84 1.38,-0.87c0.52,-0.02 1.06,0.05 1.61,0.22c0.26,0.05 0.46,0.16 0.59,0.34c0.13,0.18 0.21,0.4 0.23,0.67c0.03,0.19 0.02,0.47 -0.03,0.83c-0.05,0.36 -0.11,0.73 -0.18,1.11c-0.07,0.39 -0.13,0.77 -0.18,1.14c-0.05,0.37 -0.06,0.67 -0.04,0.91c0.31,-0.24 0.67,-0.54 1.06,-0.9c0.4,-0.36 0.8,-0.73 1.19,-1.11c0.4,-0.39 0.78,-0.77 1.15,-1.14c0.37,-0.37 0.7,-0.7 0.99,-0.99c0.27,-0.41 0.55,-0.61 0.85,-0.61c0.3,0 0.53,0.1 0.7,0.31c0.17,0.2 0.23,0.45 0.2,0.74c-0.03,0.29 -0.23,0.53 -0.59,0.72c-1.49,1.44 -3.07,2.9 -4.72,4.39c-0.27,0.19 -0.49,0.4 -0.68,0.61c-0.19,0.21 -0.31,0.53 -0.36,0.94c-0.19,1.41 -0.55,2.76 -1.07,4.03c-0.51,1.27 -1.21,2.47 -2.1,3.6c-1.08,1.25 -2.27,2.12 -3.58,2.63c-1.31,0.5 -2.77,0.59 -4.38,0.28c-0.05,-0.02 -0.11,-0.03 -0.2,-0.03c-0.08,0 -0.16,-0.01 -0.23,-0.04c-0.6,-0.14 -1.16,-0.37 -1.67,-0.68c-0.52,-0.31 -0.89,-0.82 -1.1,-1.51c-0.19,-0.7 -0.15,-1.31 0.14,-1.82c0.29,-0.52 0.67,-0.98 1.15,-1.39c0.79,-0.69 1.66,-1.32 2.6,-1.87c0.89,-0.53 1.78,-1.05 2.68,-1.57c0.9,-0.51 1.81,-1.01 2.72,-1.49c0.48,-0.27 0.85,-0.58 1.11,-0.94c0.27,-0.36 0.39,-0.81 0.36,-1.36c0,-0.07 0.02,-0.25 0.06,-0.53c0.03,-0.27 0.07,-0.57 0.12,-0.88c0.05,-0.31 0.09,-0.61 0.13,-0.9c0.03,-0.29 0.06,-0.49 0.09,-0.61c-0.53,0.21 -0.98,0.51 -1.37,0.88c-0.39,0.37 -0.76,0.73 -1.13,1.08c-0.37,0.35 -0.78,0.62 -1.23,0.83c-0.44,0.21 -0.99,0.26 -1.64,0.16c-1.34,-0.14 -2.11,-0.91 -2.3,-2.3c-0.15,-1.01 -0.13,-2.05 0.04,-3.12c0.17,-1.07 0.45,-2.07 0.84,-3.02c0.4,-0.95 0.91,-1.8 1.53,-2.57c0.63,-0.77 1.34,-1.38 2.14,-1.82c0.81,-0.45 1.68,-0.7 2.63,-0.76c0.95,-0.06 1.95,0.15 3.01,0.63c0.86,0.41 1.52,0.95 1.98,1.62c0.45,0.67 0.58,1.44 0.39,2.31c-0.07,0.29 -0.2,0.54 -0.41,0.75c-0.21,0.22 -0.44,0.38 -0.7,0.49c-0.27,0.11 -0.54,0.14 -0.83,0.11c-0.29,-0.04 -0.54,-0.16 -0.76,-0.35c-0.12,-0.09 -0.23,-0.22 -0.32,-0.39c-0.09,-0.17 -0.18,-0.35 -0.25,-0.54c-0.05,-0.29 -0.08,-0.58 -0.11,-0.88c-0.03,-0.3 -0.09,-0.57 -0.18,-0.81c-0.55,-0.17 -1.05,-0.12 -1.48,0.16c-0.43,0.27 -0.8,0.67 -1.11,1.19c-0.31,0.51 -0.58,1.12 -0.81,1.81c-0.23,0.7 -0.41,1.39 -0.56,2.06c-0.24,1.08 -0.33,1.77 -0.27,2.08c0.06,0.31 0.23,0.4 0.5,0.26c0.28,-0.15 0.63,-0.44 1.05,-0.87c0.42,-0.43 0.87,-0.84 1.35,-1.22zM279.64613,40.00694c-0.02,-0.05 -0.05,-0.08 -0.09,-0.09c-0.03,-0.01 -0.06,-0.04 -0.09,-0.09c-0.57,0.27 -1.14,0.56 -1.69,0.87c-0.55,0.31 -1.11,0.64 -1.66,0.97c-0.26,0.12 -0.53,0.25 -0.81,0.4c-0.27,0.14 -0.54,0.32 -0.81,0.54c-0.24,0.17 -0.47,0.35 -0.7,0.55c-0.23,0.21 -0.41,0.44 -0.56,0.71c-0.31,0.36 -0.44,0.74 -0.41,1.15c0.03,0.41 0.22,0.77 0.56,1.08c0.41,0.41 0.8,0.62 1.17,0.63c0.37,0.01 0.8,-0.21 1.28,-0.67c0.91,-0.84 1.65,-1.79 2.23,-2.84c0.57,-1.06 1.1,-2.13 1.58,-3.21zM306.53613,32.88694c-0.67,0.02 -1.22,-0.04 -1.67,-0.18c-0.45,-0.15 -0.75,-0.32 -0.9,-0.51c-0.15,-0.19 -0.15,-0.38 0,-0.56c0.15,-0.18 0.5,-0.29 1.03,-0.34c0.57,-0.05 1.13,-0.37 1.67,-0.97c0.54,-0.6 1.04,-1.36 1.49,-2.27c0.46,-0.91 0.88,-1.92 1.26,-3.02c0.39,-1.11 0.72,-2.19 1.01,-3.24c0.29,-1.06 0.52,-2.03 0.7,-2.92c0.18,-0.89 0.3,-1.57 0.35,-2.05c0.05,-0.48 -0.01,-0.82 -0.17,-1.01c-0.15,-0.19 -0.49,-0.11 -1.02,0.25c-0.34,0.19 -0.66,0.4 -0.97,0.62c-0.31,0.21 -0.61,0.45 -0.9,0.72c-0.22,0.12 -0.46,0.12 -0.72,0.01c-0.27,-0.11 -0.47,-0.27 -0.62,-0.5c-0.14,-0.23 -0.2,-0.5 -0.19,-0.81c0.01,-0.31 0.17,-0.63 0.48,-0.94c0.96,-0.96 2.02,-1.58 3.17,-1.87c1.15,-0.29 2.34,-0.37 3.56,-0.25c0.58,0.05 1.06,0.2 1.44,0.45c0.39,0.25 0.69,0.56 0.92,0.92c0.23,0.36 0.39,0.75 0.49,1.17c0.09,0.42 0.14,0.85 0.14,1.28c0,1.08 -0.1,2.13 -0.3,3.16c-0.21,1.03 -0.45,2.05 -0.74,3.06c-0.29,1.01 -0.61,2.01 -0.96,2.99c-0.35,0.99 -0.68,1.96 -0.99,2.92c1.18,-0.12 2.33,-0.25 3.46,-0.4c1.13,-0.14 2.28,-0.27 3.46,-0.39c0.21,-0.7 0.45,-1.41 0.7,-2.13c0.25,-0.72 0.49,-1.43 0.7,-2.12c0.6,-1.83 1.21,-3.62 1.84,-5.37c0.62,-1.75 1.42,-3.44 2.41,-5.07c0.19,-0.27 0.38,-0.53 0.57,-0.79c0.19,-0.27 0.41,-0.51 0.65,-0.72c0.29,-0.24 0.64,-0.4 1.05,-0.47c0.41,-0.07 0.81,-0.07 1.22,0c0.41,0.07 0.79,0.22 1.15,0.43c0.36,0.21 0.64,0.48 0.83,0.79c0.07,0.07 0.1,0.18 0.09,0.31c-0.01,0.13 -0.04,0.26 -0.09,0.38c-0.07,0.26 -0.17,0.51 -0.29,0.75c-0.12,0.24 -0.25,0.49 -0.39,0.76c-0.99,1.85 -1.86,3.73 -2.63,5.65c-0.77,1.92 -1.49,3.9 -2.16,5.94c-0.05,0.19 -0.1,0.39 -0.15,0.58c-0.05,0.19 -0.09,0.38 -0.14,0.57c0.24,0.1 0.48,0.15 0.72,0.15c0.24,0 0.48,0.01 0.72,0.03c0.24,0.03 0.47,0.09 0.68,0.18c0.22,0.1 0.41,0.27 0.58,0.51c-0.21,0.29 -0.46,0.49 -0.74,0.61c-0.27,0.12 -0.56,0.2 -0.86,0.25c-0.3,0.05 -0.6,0.09 -0.9,0.14c-0.3,0.05 -0.58,0.15 -0.85,0.29c-0.33,0.77 -0.66,1.73 -0.97,2.9c-0.31,1.17 -0.59,2.34 -0.83,3.53c-0.24,1.19 -0.43,2.3 -0.56,3.33c-0.13,1.03 -0.17,1.79 -0.12,2.27c-0.36,0.36 -0.76,0.54 -1.19,0.54c-0.43,0 -0.85,-0.06 -1.26,-0.18c-0.41,-0.1 -0.71,-0.29 -0.9,-0.56c-0.19,-0.28 -0.35,-0.61 -0.47,-0.99c-0.17,-0.63 -0.26,-1.27 -0.29,-1.93c-0.02,-0.66 0.01,-1.31 0.08,-1.96c0.12,-0.89 0.26,-1.78 0.43,-2.68c0.17,-0.9 0.33,-1.81 0.5,-2.72c0.03,-0.12 0.05,-0.25 0.06,-0.38c0.01,-0.13 0.04,-0.32 0.09,-0.56c-0.48,0.05 -0.93,0.1 -1.34,0.15c-0.41,0.05 -0.83,0.09 -1.26,0.14c-0.57,0.1 -1.15,0.19 -1.72,0.27c-0.58,0.09 -1.16,0.15 -1.73,0.2c-0.46,0.05 -0.83,0.17 -1.12,0.38c-0.29,0.2 -0.54,0.49 -0.75,0.88c-0.7,1.37 -1.4,2.72 -2.11,4.05c-0.71,1.33 -1.44,2.67 -2.21,4.01c-0.36,0.63 -0.83,1.03 -1.41,1.21c-0.57,0.18 -1.2,0.15 -1.87,-0.09c-0.41,-0.12 -0.66,-0.27 -0.77,-0.45c-0.11,-0.18 -0.11,-0.5 0.01,-0.95c0.27,-0.77 0.53,-1.55 0.8,-2.34c0.26,-0.79 0.52,-1.57 0.79,-2.34c0.14,-0.46 0.29,-0.91 0.45,-1.35c0.15,-0.45 0.31,-0.9 0.48,-1.35zM340.09613,33.96694c-0.41,0.31 -0.8,0.59 -1.16,0.86c-0.36,0.27 -0.73,0.54 -1.11,0.83c-1.68,1.13 -3.53,1.51 -5.55,1.15c-1.46,-0.21 -2.29,-1.07 -2.48,-2.56c-0.15,-1.08 -0.07,-2.18 0.23,-3.29c0.3,-1.11 0.76,-2.17 1.39,-3.17c0.63,-0.99 1.39,-1.9 2.29,-2.72c0.9,-0.81 1.86,-1.48 2.89,-1.99c1.03,-0.52 2.11,-0.86 3.23,-1.01c1.11,-0.16 2.21,-0.07 3.29,0.27c0.67,0.21 1.27,0.5 1.78,0.86c0.52,0.36 0.91,0.86 1.17,1.51c0.29,0.6 0.3,1.19 0.04,1.77c-0.27,0.57 -0.69,0.93 -1.26,1.08c-0.41,0.12 -0.71,0.1 -0.92,-0.06c-0.21,-0.15 -0.37,-0.42 -0.49,-0.81c-0.12,-0.43 -0.26,-0.82 -0.43,-1.18c-0.55,-1.2 -1.45,-1.51 -2.7,-0.94c-0.65,0.31 -1.23,0.69 -1.74,1.13c-0.52,0.45 -1.02,0.95 -1.5,1.5c-0.72,0.91 -1.33,1.87 -1.82,2.88c-0.49,1.01 -0.83,2.09 -1.02,3.24c-0.22,1.13 -0.13,1.72 0.27,1.78c0.39,0.06 0.95,-0.29 1.67,-1.06c0.99,-0.82 1.95,-1.64 2.9,-2.47c0.95,-0.83 1.89,-1.66 2.83,-2.5c0.77,-0.69 1.63,-0.97 2.59,-0.83c0.91,0.07 1.22,0.53 0.93,1.37c-0.14,0.6 -0.3,1.19 -0.48,1.76c-0.18,0.58 -0.35,1.18 -0.52,1.8c-0.19,0.7 -0.22,1.16 -0.09,1.37c0.13,0.22 0.36,0.29 0.7,0.2c0.33,-0.09 0.73,-0.3 1.19,-0.63c0.45,-0.33 0.9,-0.72 1.33,-1.15c0.43,-0.43 0.83,-0.88 1.19,-1.33c0.36,-0.46 0.6,-0.86 0.72,-1.19c0.12,-0.31 0.29,-0.51 0.5,-0.6c0.21,-0.08 0.42,-0.08 0.63,0c0.21,0.09 0.36,0.23 0.45,0.44c0.09,0.2 0.09,0.44 0,0.73c-0.29,0.77 -0.72,1.49 -1.3,2.15c-0.57,0.66 -1.19,1.25 -1.85,1.76c-0.66,0.51 -1.33,0.95 -2,1.3c-0.67,0.35 -1.25,0.58 -1.73,0.7c-0.62,0.17 -1.19,0.21 -1.72,0.14c-0.53,-0.07 -0.98,-0.24 -1.35,-0.5c-0.37,-0.27 -0.65,-0.62 -0.83,-1.06c-0.18,-0.45 -0.23,-0.96 -0.16,-1.53zM354.05613,30.54694c0.41,-0.36 0.82,-0.74 1.21,-1.14c0.39,-0.39 0.81,-0.76 1.24,-1.1c0.94,-0.72 1.87,-1.43 2.79,-2.12c0.93,-0.69 1.88,-1.39 2.86,-2.09c0.48,-0.33 1,-0.57 1.55,-0.7c0.55,-0.13 1.12,-0.13 1.69,0.02c1.01,0.29 1.6,0.81 1.75,1.56c0.15,0.76 0,1.62 -0.45,2.58c-0.87,2.25 -1.41,4.06 -1.64,5.43c-0.23,1.37 -0.17,2.21 0.18,2.52c0.35,0.31 0.98,0.06 1.91,-0.77c0.93,-0.83 2.13,-2.31 3.62,-4.45c0.19,-0.29 0.37,-0.46 0.52,-0.52c0.15,-0.06 0.33,-0.08 0.52,-0.05c0.22,0.02 0.38,0.12 0.49,0.3c0.11,0.18 0.06,0.48 -0.13,0.89c-0.24,0.48 -0.55,1 -0.92,1.56c-0.37,0.57 -0.78,1.11 -1.24,1.64c-0.45,0.53 -0.93,1.02 -1.42,1.48c-0.49,0.45 -0.97,0.82 -1.42,1.11c-0.94,0.58 -1.91,0.87 -2.9,0.87c-0.99,0 -1.84,-0.32 -2.54,-0.96c-0.69,-0.63 -1.15,-1.6 -1.37,-2.9c-0.21,-1.29 -0.01,-2.96 0.62,-5c0.05,-0.19 0.16,-0.47 0.34,-0.83c0.18,-0.36 0.31,-0.68 0.39,-0.97c0.09,-0.29 0.07,-0.47 -0.05,-0.56c-0.12,-0.08 -0.43,0.05 -0.94,0.38c-0.98,0.75 -1.9,1.55 -2.77,2.41c-0.86,0.87 -1.68,1.79 -2.45,2.77c-0.55,0.65 -1.08,1.33 -1.6,2.02c-0.51,0.69 -1.02,1.39 -1.53,2.09c-0.36,0.5 -0.76,0.85 -1.19,1.04c-0.43,0.19 -0.92,0.29 -1.47,0.29c-0.67,-0.03 -1.17,-0.18 -1.48,-0.47c-0.31,-0.29 -0.41,-0.75 -0.29,-1.4c0.12,-0.94 0.27,-1.86 0.44,-2.77c0.17,-0.91 0.38,-1.83 0.64,-2.74c0.41,-1.27 0.89,-2.53 1.43,-3.78c0.54,-1.25 1.19,-2.41 1.96,-3.49c0.65,-0.63 1.43,-0.94 2.34,-0.94c0.89,0.05 1.44,0.23 1.67,0.54c0.23,0.31 0.19,0.9 -0.12,1.77c-0.34,0.81 -0.67,1.63 -0.99,2.46c-0.33,0.83 -0.62,1.67 -0.89,2.54c-0.21,0.41 -0.39,0.86 -0.54,1.37c0.05,0.02 0.08,0.04 0.09,0.05c0.01,0.01 0.04,0.03 0.09,0.06zM380.15613,34.06694c-0.45,0.51 -0.92,0.99 -1.4,1.44c-0.48,0.46 -0.98,0.85 -1.51,1.17c-0.53,0.33 -1.09,0.58 -1.68,0.76c-0.59,0.18 -1.2,0.25 -1.85,0.2c-0.96,-0.12 -1.75,-0.46 -2.38,-1.01c-0.62,-0.55 -0.99,-1.32 -1.11,-2.3c-0.22,-1.2 -0.23,-2.38 -0.04,-3.55c0.19,-1.17 0.55,-2.25 1.08,-3.24c0.53,-0.99 1.19,-1.87 1.98,-2.63c0.79,-0.75 1.69,-1.32 2.68,-1.69c1,-0.37 2.07,-0.52 3.21,-0.43c1.14,0.08 2.31,0.46 3.51,1.13c0.29,-0.86 0.6,-1.82 0.95,-2.88c0.35,-1.05 0.7,-2.08 1.06,-3.08c0.36,-0.99 0.72,-1.9 1.08,-2.71c0.36,-0.82 0.71,-1.42 1.05,-1.8c0.36,-0.43 0.79,-0.67 1.28,-0.71c0.49,-0.03 0.94,0.06 1.35,0.29c0.41,0.23 0.71,0.56 0.91,1.01c0.21,0.45 0.2,0.92 -0.01,1.42c-0.7,1.63 -1.33,3.25 -1.89,4.84c-0.57,1.6 -1.07,3.21 -1.52,4.83c-0.44,1.62 -0.83,3.26 -1.17,4.93c-0.33,1.67 -0.62,3.39 -0.86,5.17c-0.24,1.65 -0.31,2.77 -0.2,3.36c0.11,0.59 0.33,0.82 0.67,0.69c0.33,-0.13 0.75,-0.54 1.26,-1.23c0.5,-0.68 1.03,-1.45 1.58,-2.32c0.48,-0.77 0.95,-1.61 1.42,-2.54c0.47,-0.92 0.94,-1.77 1.39,-2.54c0.12,-0.26 0.29,-0.44 0.5,-0.55c0.22,-0.11 0.43,-0.15 0.63,-0.11c0.21,0.03 0.37,0.13 0.49,0.3c0.12,0.17 0.14,0.4 0.07,0.69c-0.05,0.17 -0.09,0.29 -0.12,0.36c-0.04,0.07 -0.08,0.19 -0.13,0.36c-0.84,1.87 -1.72,3.6 -2.63,5.18c-0.91,1.59 -1.98,3.05 -3.2,4.39c-0.51,0.46 -1.06,0.74 -1.66,0.85c-0.6,0.11 -1.25,0.1 -1.94,-0.02c-0.6,-0.14 -1.07,-0.42 -1.42,-0.83c-0.35,-0.41 -0.59,-0.9 -0.71,-1.47c-0.19,-1.01 -0.31,-1.97 -0.37,-2.88c-0.06,-0.91 -0.09,-1.85 -0.09,-2.81c-0.03,0 -0.06,-0.01 -0.09,-0.02c-0.04,-0.01 -0.1,-0.02 -0.17,-0.02zM375.26613,35.07694c0.24,0.27 0.62,0.25 1.15,-0.05c0.53,-0.3 1.11,-0.85 1.75,-1.66c0.63,-0.8 1.27,-1.84 1.9,-3.13c0.64,-1.29 1.19,-2.77 1.64,-4.45c-0.93,-0.36 -1.78,-0.38 -2.54,-0.05c-0.75,0.33 -1.41,0.83 -1.98,1.51c-0.56,0.69 -1.03,1.47 -1.42,2.36c-0.38,0.89 -0.66,1.73 -0.83,2.54c-0.17,0.8 -0.23,1.48 -0.18,2.05c0.05,0.57 0.22,0.86 0.51,0.88z" stroke-linecap="round"/>
</g>
</g>
</g>
<g transform="matrix(1 0 0 1 -1254.980455 606.67093)" id="b68eceaa-3be0-4c99-9d34-c2f47288bec0">

</g>
<g transform="matrix(1 0 0 1 -1254.980455 606.67093)" id="07e0792b-7c10-4679-ba7a-da8c1b83eed9">

</g>
<g id="c73dd5e8-c0eb-499b-9511-c29cea754c51">
<g style="">
		<g id="Layer_1-2">
<path style="stroke: rgb(193,193,193); stroke-width: 0; stroke-dasharray: none; stroke-linecap: butt; stroke-dashoffset: 0; stroke-linejoin: miter; stroke-miterlimit: 4; fill: rgb(0,0,0); fill-rule: nonzero; opacity: 1;" transform="matrix(0.175572 0 0 0.175572 82.411342 25.755661) matrix(1 0 0 1 0 0)  translate(-145.048126, -81.313794)" d="M 290.12 112.11 C 256.80 142.89 211.58 161.17 165.58 162.50 C 142.55 163.20 119.54 160.65 97.22 154.94 C 85.88 152.18 74.83 148.33 64.22 143.47 C 53.37 138.53 43.27 132.09 34.22 124.33 C 25.13 116.43 16.57 107.33 10.09 96.14 C 3.61 84.95 -0.37 71.78 0.00 58.39 C 0.15 51.70 1.25 45.08 3.27 38.70 C 5.35 32.00 8.69 25.76 13.10 20.30 C 22.00 9.12 35.48 2.69 48.23 0.83 C 60.70 -0.96 73.43 0.21 85.36 4.26 C 91.43 6.21 97.23 8.90 102.64 12.26 C 108.46 15.84 113.49 20.58 117.42 26.17 C 121.61 32.14 124.03 39.17 124.42 46.46 C 124.66 50.19 124.32 53.93 123.42 57.56 C 122.60 61.00 121.33 64.31 119.66 67.42 C 116.32 73.92 111.02 79.21 104.51 82.53 C 98.00 85.70 90.16 86.13 84.31 82.84 L 84.31 82.17 C 88.83 79.36 92.61 75.49 95.31 70.90 C 97.40 67.16 98.97 63.16 100.00 59.00 C 100.45 56.95 101.09 54.64 101.36 52.73 C 101.54 51.80 101.65 50.85 101.70 49.90 C 101.82 48.94 101.88 47.98 101.87 47.02 C 102.01 42.90 101.54 38.77 100.46 34.79 C 99.24 30.30 97.05 26.13 94.04 22.59 C 90.75 18.84 86.58 15.98 81.90 14.26 C 72.25 10.82 61.64 11.24 52.30 15.44 C 43.99 19.36 37.25 25.98 33.17 34.22 C 31.20 38.07 29.65 42.12 28.52 46.29 C 27.36 50.77 26.52 55.32 26.00 59.91 C 24.80 69.37 25.48 78.97 28.00 88.16 C 30.93 98.04 36.31 107.02 43.63 114.27 C 58.63 129.27 78.74 139.27 99.81 145.48 C 121.08 151.66 143.24 155.26 165.44 155.06 C 187.72 154.96 209.83 151.10 230.82 143.62 C 251.82 136.06 271.48 124.91 289.71 111.62 Z" stroke-linecap="round"/>
</g>
</g>
</g>
<g id="ed03af72-d17f-4f92-95e7-3453dfdb87fe">
<g style="">
		<g id="Layer_1-2">
<path style="stroke: rgb(193,193,193); stroke-width: 0; stroke-dasharray: none; stroke-linecap: butt; stroke-dashoffset: 0; stroke-linejoin: miter; stroke-miterlimit: 4; fill: rgb(0,0,0); fill-rule: nonzero; opacity: 1;" transform="matrix(-0.175572 0 0 0.175572 427.588658 25.755662) matrix(1 0 0 1 0 0)  translate(-145.048126, -81.313794)" d="M 290.12 112.11 C 256.80 142.89 211.58 161.17 165.58 162.50 C 142.55 163.20 119.54 160.65 97.22 154.94 C 85.88 152.18 74.83 148.33 64.22 143.47 C 53.37 138.53 43.27 132.09 34.22 124.33 C 25.13 116.43 16.57 107.33 10.09 96.14 C 3.61 84.95 -0.37 71.78 0.00 58.39 C 0.15 51.70 1.25 45.08 3.27 38.70 C 5.35 32.00 8.69 25.76 13.10 20.30 C 22.00 9.12 35.48 2.69 48.23 0.83 C 60.70 -0.96 73.43 0.21 85.36 4.26 C 91.43 6.21 97.23 8.90 102.64 12.26 C 108.46 15.84 113.49 20.58 117.42 26.17 C 121.61 32.14 124.03 39.17 124.42 46.46 C 124.66 50.19 124.32 53.93 123.42 57.56 C 122.60 61.00 121.33 64.31 119.66 67.42 C 116.32 73.92 111.02 79.21 104.51 82.53 C 98.00 85.70 90.16 86.13 84.31 82.84 L 84.31 82.17 C 88.83 79.36 92.61 75.49 95.31 70.90 C 97.40 67.16 98.97 63.16 100.00 59.00 C 100.45 56.95 101.09 54.64 101.36 52.73 C 101.54 51.80 101.65 50.85 101.70 49.90 C 101.82 48.94 101.88 47.98 101.87 47.02 C 102.01 42.90 101.54 38.77 100.46 34.79 C 99.24 30.30 97.05 26.13 94.04 22.59 C 90.75 18.84 86.58 15.98 81.90 14.26 C 72.25 10.82 61.64 11.24 52.30 15.44 C 43.99 19.36 37.25 25.98 33.17 34.22 C 31.20 38.07 29.65 42.12 28.52 46.29 C 27.36 50.77 26.52 55.32 26.00 59.91 C 24.80 69.37 25.48 78.97 28.00 88.16 C 30.93 98.04 36.31 107.02 43.63 114.27 C 58.63 129.27 78.74 139.27 99.81 145.48 C 121.08 151.66 143.24 155.26 165.44 155.06 C 187.72 154.96 209.83 151.10 230.82 143.62 C 251.82 136.06 271.48 124.91 289.71 111.62 Z" stroke-linecap="round"/>
</g>
</g>
</g>

  </svg>